<svg version="1.1" id="Layer_1" xmlns="http://www.w3.org/2000/svg" xmlns:xlink="http://www.w3.org/1999/xlink" x="0px" y="0px" viewBox="0 0 500 500" style="width: 188px;" xml:space="preserve" data-imageid="report-analysis-8" imageName="Report Analysis" class="illustrations_image">
<style type="text/css">
	.st0_report-analysis-8{fill:#D1D3D4;}
	.st1_report-analysis-8{fill:#231F20;}
	.st2_report-analysis-8{fill:#FFFFFF;}
	.st3_report-analysis-8{fill:#68E1FD;}
</style>
<g id="Cup_report-analysis-8">
	<path class="st0_report-analysis-8" d="M417.5,326.9H394c-0.4,0-0.7-0.3-0.7-0.7l-2.7-41.2c0-0.2,0.1-0.4,0.2-0.5c0.1-0.1,0.3-0.2,0.5-0.2h29&#10;&#9;&#9;c0.2,0,0.4,0.1,0.5,0.2c0.1,0.1,0.2,0.3,0.2,0.5l-2.7,41.3C418.2,326.7,417.9,326.9,417.5,326.9z M394.7,325.5h22.2l2.6-39.9H392&#10;&#9;&#9;L394.7,325.5z"/>
	<path class="st0_report-analysis-8" d="M423.5,285.6H388c-0.4,0-0.7-0.3-0.7-0.7v0V278c0-0.4,0.3-0.7,0.7-0.7h0h35.5c0.4,0,0.7,0.3,0.7,0.7v0v6.9&#10;&#9;&#9;C424.2,285.3,423.9,285.6,423.5,285.6C423.5,285.6,423.5,285.6,423.5,285.6z M388.7,284.2h34v-5.5h-34V284.2z"/>
</g>
<g id="Desk_report-analysis-8">
	<rect x="191.7" y="343.9" class="st1_report-analysis-8" width="119.9" height="56.5"/>
	<path class="st1_report-analysis-8" d="M311.6,401.1H191.7c-0.4,0-0.7-0.3-0.7-0.7l0,0v-56.5c0-0.4,0.3-0.7,0.7-0.7c0,0,0,0,0,0h119.9&#10;&#9;&#9;c0.4,0,0.7,0.3,0.7,0.7v0v56.5C312.4,400.8,312,401.1,311.6,401.1L311.6,401.1z M192.4,399.7H311v-55.1H192.4L192.4,399.7z"/>
	<path class="st2_report-analysis-8" d="M158.8,326.4h277.6c3.1,0,5.5,2.5,5.5,5.5v6.4c0,3.1-2.5,5.5-5.5,5.5H158.8c-3.1,0-5.6-2.5-5.6-5.5v-6.4&#10;&#9;&#9;C153.2,328.9,155.7,326.4,158.8,326.4z"/>
	<path class="st1_report-analysis-8" d="M436.4,344.6H158.8c-3.4,0-6.2-2.8-6.2-6.2v-6.4c0-3.4,2.8-6.2,6.2-6.2h277.6c3.4,0,6.2,2.8,6.2,6.2v6.4&#10;&#9;&#9;C442.6,341.8,439.8,344.5,436.4,344.6z M158.8,327.1c-2.7,0-4.8,2.2-4.9,4.9v6.4c0,2.7,2.2,4.8,4.9,4.9h277.6&#10;&#9;&#9;c2.7,0,4.8-2.2,4.8-4.9v-6.4c0-2.7-2.2-4.8-4.8-4.9H158.8z"/>
	<path class="st2_report-analysis-8" d="M304.2,326.4H438c2.1,0,3.9,1.7,3.9,3.9v9.7c0,2.1-1.7,3.9-3.9,3.9H304.2c-2.1,0-3.9-1.7-3.9-3.9v-9.7&#10;&#9;&#9;C300.3,328.1,302,326.4,304.2,326.4z"/>
	<path class="st1_report-analysis-8" d="M438,344.6H304.2c-2.5,0-4.6-2.1-4.6-4.6v-9.7c0-2.5,2-4.6,4.6-4.6H438c2.5,0,4.6,2.1,4.6,4.6v9.7&#10;&#9;&#9;C442.6,342.5,440.5,344.6,438,344.6z M304.2,327.1c-1.8,0-3.2,1.4-3.2,3.2c0,0,0,0,0,0v9.7c0,1.8,1.4,3.2,3.2,3.2c0,0,0,0,0,0H438&#10;&#9;&#9;c1.8,0,3.2-1.4,3.2-3.2v-9.7c0-1.8-1.4-3.2-3.2-3.2L304.2,327.1z"/>
	<rect x="311.8" y="343.9" class="st2_report-analysis-8" width="119.9" height="56.5"/>
	<path class="st1_report-analysis-8" d="M431.8,401.1H311.8c-0.4,0-0.7-0.3-0.7-0.7v0v-56.5c0-0.4,0.3-0.7,0.7-0.7h0h119.9c0.4,0,0.7,0.3,0.7,0.7v0&#10;&#9;&#9;v56.5C432.5,400.8,432.1,401.1,431.8,401.1L431.8,401.1z M312.5,399.7h118.5v-55.1H312.5V399.7z"/>
	<rect x="297.6" y="343.9" class="st2_report-analysis-8" width="14.3" height="56.5"/>
	<path class="st1_report-analysis-8" d="M311.8,401.1h-14.3c-0.4,0-0.7-0.3-0.7-0.7v0v-56.5c0-0.4,0.3-0.7,0.7-0.7h0h14.3c0.4,0,0.7,0.3,0.7,0.7v0&#10;&#9;&#9;v56.5C312.5,400.8,312.2,401.1,311.8,401.1C311.8,401.1,311.8,401.1,311.8,401.1z M298.3,399.7h12.9v-55.1h-12.9V399.7z"/>
</g>
<g id="Screen_report-analysis-8">
	<path class="st2_report-analysis-8" d="M316,253.2c0,0,4.8,49.5-5.9,56.2c-9.9,6.2-20.9,4.4-27,4.4s-9.6,4-10.5,7l-1.6,5.4h76.5c0,0,9-5.6,14.2-14.7&#10;&#9;&#9;s2-56,2-56L316,253.2z"/>
	<path class="st1_report-analysis-8" d="M347.5,326.9H271c-0.2,0-0.4-0.1-0.6-0.3c-0.1-0.2-0.2-0.4-0.1-0.6l1.6-5.4c1.1-3.6,5-7.5,11.1-7.5&#10;&#9;&#9;c1,0,2.2,0,3.5,0.1c6.4,0.3,15.1,0.7,23.2-4.4c4.2-2.6,6.5-13,6.6-30c0.1-13-1.1-25.4-1.1-25.5c0-0.2,0-0.4,0.2-0.6&#10;&#9;&#9;c0.1-0.2,0.3-0.2,0.5-0.2l47.5,2.3c0.4,0,0.6,0.3,0.7,0.6c0.1,1.9,3.1,47.3-2,56.4s-14,14.7-14.4,14.9&#10;&#9;&#9;C347.7,326.9,347.6,326.9,347.5,326.9z M272,325.5h75.3c1.2-0.8,9.2-6.2,13.8-14.3s2.2-49.4,1.9-55l-46.2-2.2&#10;&#9;&#9;c0.6,6.7,4,49.6-6.3,56c-8.5,5.3-17.8,4.9-24,4.6c-1.2-0.1-2.4-0.1-3.4-0.1c-5.4,0-8.9,3.4-9.8,6.5L272,325.5z"/>
	<path class="st1_report-analysis-8" d="M359.9,300.3c0,12.2-3.7,15.9-8.5,15.9h-19.2c-2.7,0-5.1,1.7-6,4.2l-2.1,5.8h29.5c7.6,0,13-11.5,13.2-23.7&#10;&#9;&#9;s0-46.9,0-46.9h-6.6C360.1,255.6,359.9,288.1,359.9,300.3z"/>
	<path class="st1_report-analysis-8" d="M353.5,326.9H324c-0.2,0-0.4-0.1-0.6-0.3c-0.1-0.2-0.2-0.4-0.1-0.6l2.1-5.8c1-2.8,3.7-4.7,6.7-4.7h19.2&#10;&#9;&#9;c5.3,0,7.8-5,7.8-15.2c0-12.1,0.2-44.4,0.2-44.8c0-0.4,0.3-0.7,0.7-0.7c0,0,0,0,0,0h6.6c0.4,0,0.7,0.3,0.7,0.7c0,0,0,0,0,0&#10;&#9;&#9;c0,0.4,0.2,34.9,0,47S361.9,326.9,353.5,326.9z M325,325.5h28.5c6.6,0,12.2-10.3,12.5-23c0.2-11.1,0-41.3,0-46.2h-5.2&#10;&#9;&#9;c0,4.8-0.2,33-0.2,44s-3,16.6-9.2,16.6h-19.2c-2.4,0-4.6,1.5-5.4,3.8L325,325.5z"/>
	<path class="st1_report-analysis-8" d="M256.7,118.5l-11.6,132.3c-0.6,6.5,4.1,11.8,10.4,11.8h157.7c6.3,0,11.9-5.3,12.4-11.8l11.6-132.3&#10;&#9;&#9;c0.6-6.5-4.1-11.8-10.3-11.8H269.1C262.8,106.7,257.3,112,256.7,118.5z"/>
	<path class="st1_report-analysis-8" d="M413.2,263.3H255.5c-3.1,0-6-1.3-8.1-3.5c-2.2-2.5-3.3-5.8-2.9-9.1L256,118.4l0,0c0.6-6.9,6.5-12.5,13.1-12.5&#10;&#9;&#9;h157.7c3.1,0,6,1.3,8.1,3.5c2.2,2.5,3.3,5.8,2.9,9.1l-11.6,132.3C425.7,257.7,419.8,263.3,413.2,263.3z M257.4,118.6l-11.6,132.3&#10;&#9;&#9;c-0.3,2.9,0.6,5.8,2.6,8c1.8,2,4.4,3.1,7.1,3.1h157.7c5.9,0,11.2-5,11.7-11.2l11.6-132.3c0.3-2.9-0.6-5.8-2.6-8&#10;&#9;&#9;c-1.8-2-4.4-3.1-7.1-3.1H269.1C263.2,107.4,257.9,112.4,257.4,118.6z"/>
	<path class="st2_report-analysis-8" d="M256.2,118l-11.1,126.3c-0.5,6.2,3.9,11.3,9.9,11.3h150.6c6,0,11.3-5.1,11.9-11.3l11-126.3&#10;&#9;&#9;c0.5-6.2-3.9-11.3-9.9-11.3H268C262,106.7,256.7,111.7,256.2,118z"/>
	<path class="st1_report-analysis-8" d="M405.6,256.3H255c-2.9,0-5.8-1.2-7.8-3.4c-2.1-2.4-3.2-5.5-2.8-8.7l11-126.3l0,0c0.6-6.6,6.2-11.9,12.6-11.9&#10;&#9;&#9;h150.6c2.9,0,5.8,1.2,7.8,3.4c2.1,2.4,3.1,5.5,2.8,8.7l-11.1,126.3C417.6,250.9,411.9,256.3,405.6,256.3z M256.9,118l-11,126.3&#10;&#9;&#9;c-0.3,2.8,0.6,5.5,2.5,7.6c1.7,1.9,4.2,2.9,6.7,2.9h150.6c5.6,0,10.6-4.8,11.2-10.7l11-126.3c0.3-2.8-0.6-5.5-2.5-7.6&#10;&#9;&#9;c-1.7-1.9-4.2-2.9-6.7-2.9H268C262.4,107.4,257.4,112.1,256.9,118L256.9,118z"/>
	<path class="st2_report-analysis-8" d="M247,223.1l-1.9,21.2c-0.5,6.2,3.9,11.3,9.9,11.3h150.6c6,0,11.3-5.1,11.9-11.3l1.9-21.2L247,223.1z"/>
	<path class="st1_report-analysis-8" d="M405.6,256.3H255c-2.9,0-5.8-1.2-7.8-3.4c-2.1-2.4-3.2-5.5-2.8-8.7l1.9-21.2c0-0.4,0.3-0.6,0.7-0.6h172.3&#10;&#9;&#9;c0.2,0,0.4,0.1,0.5,0.2c0.1,0.1,0.2,0.3,0.2,0.5l-1.9,21.2C417.6,250.9,411.9,256.3,405.6,256.3z M247.6,223.8l-1.8,20.6&#10;&#9;&#9;c-0.3,2.8,0.6,5.5,2.5,7.6c1.7,1.9,4.2,2.9,6.7,2.9h150.6c5.6,0,10.6-4.8,11.2-10.7l1.8-20.4L247.6,223.8z"/>
	
		<ellipse transform="matrix(0.5567 -0.8307 0.8307 0.5567 -51.7366 381.6212)" class="st2_report-analysis-8" cx="331.7" cy="239.3" rx="7.5" ry="6.8"/>
	<path class="st1_report-analysis-8" d="M331.1,247.3c-2,0-3.9-0.8-5.2-2.3c-1.4-1.6-2.1-3.7-1.9-5.8c0.4-4.4,4-7.8,8.4-8c2,0,3.9,0.8,5.2,2.3&#10;&#9;&#9;c1.4,1.6,2.1,3.7,1.9,5.8C339.1,243.7,335.5,247.2,331.1,247.3z M332.4,232.7c-3.7,0.1-6.7,3-7,6.7c-0.2,1.7,0.4,3.5,1.5,4.8&#10;&#9;&#9;c1.1,1.2,2.6,1.8,4.2,1.8c3.7-0.1,6.7-3,7-6.7c0.2-1.7-0.4-3.5-1.5-4.8C335.5,233.3,333.9,232.7,332.4,232.7z"/>
</g>
<g id="keyboard_report-analysis-8">
	<rect x="222.3" y="320" class="st2_report-analysis-8" width="115.9" height="6.4"/>
	<path class="st1_report-analysis-8" d="M338.2,327.1H222.3c-0.4,0-0.7-0.3-0.7-0.7l0,0V320c0-0.4,0.3-0.7,0.7-0.7c0,0,0,0,0,0h115.9&#10;&#9;&#9;c0.4,0,0.7,0.3,0.7,0.7v0v6.4C338.9,326.7,338.6,327.1,338.2,327.1C338.2,327.1,338.2,327.1,338.2,327.1z M223,325.7h114.5v-5H223&#10;&#9;&#9;V325.7z"/>
</g>
<g id="Character_report-analysis-8">
	<path class="st2_report-analysis-8" d="M206,350.7c0,0,53.5,13.5,53.5,49.7H118.1c0,0-22.5-21.7-16.9-55.1C158.1,347.2,206,350.7,206,350.7z"/>
	<path class="st1_report-analysis-8" d="M259.5,401.1H118.1c-0.2,0-0.4-0.1-0.5-0.2c-0.2-0.2-22.7-22.4-17.2-55.7c0.1-0.3,0.4-0.6,0.7-0.6&#10;&#9;&#9;c56.4,1.9,104.4,5.4,104.9,5.4h0.1c0.5,0.1,54.1,14,54.1,50.3C260.3,400.7,260,401.1,259.5,401.1&#10;&#9;&#9;C259.6,401.1,259.6,401.1,259.5,401.1z M118.3,399.7h140.5c-0.7-34.2-50.9-47.8-52.9-48.3c-2-0.1-49-3.5-104.2-5.4&#10;&#9;&#9;C96.9,376.6,116.2,397.4,118.3,399.7z"/>
	<path class="st2_report-analysis-8" d="M278.8,289.5c0,0,17.6-8.9,22.6-8.9s20.5,4.4,22.1,8.9s3.8,11.8,1.6,12s-5-7.8-5-7.1s-6.1,7.5-12.9,5.4&#10;&#9;&#9;l-17.9,4.9l-10.6-13.4"/>
	<path class="st1_report-analysis-8" d="M289.4,305.5c-0.2,0-0.4-0.1-0.5-0.3l-10.6-13.4c-0.2-0.3-0.2-0.7,0.1-1c0.3-0.2,0.7-0.2,1,0.1l10.3,13&#10;&#9;&#9;l17.4-4.8c0.1,0,0.3,0,0.4,0c6,1.9,11.6-3.9,12-4.9c0-0.3,0.3-0.6,0.6-0.6c0.6-0.1,0.8,0.2,1.3,1.5c2.3,5,3.3,5.6,3.7,5.6&#10;&#9;&#9;c0.7-1.1-0.3-5.7-2.2-11.1c-1.4-3.9-16.1-8.5-21.5-8.5c-4.7,0-22.1,8.7-22.3,8.8c-0.3,0.2-0.8,0-0.9-0.3s0-0.8,0.3-0.9&#10;&#9;&#9;c0.7-0.4,17.9-9,22.9-9c4.6,0,20.9,4.3,22.8,9.4c1.1,3,3.5,10.2,2.2,12.3c-0.2,0.4-0.7,0.7-1.1,0.7c-1.8,0.2-3.5-3-5.1-6.4&#10;&#9;&#9;c-0.8,0.9-1.6,1.7-2.6,2.4c-2,1.5-5.9,3.7-10.3,2.4l-17.7,4.9L289.4,305.5z"/>
	<path class="st3_report-analysis-8 targetColor" d="M101.1,345.3c0,0-14.1-115.5,2.7-139.1s57.9-27.4,77-12.2s28.4,155.2,28.4,155.2S157.9,364.3,101.1,345.3z" style="fill: rgb(213, 0, 249);"/>
	<path class="st3_report-analysis-8 targetColor" d="M180.7,194c0,0,12.2,7.4,21.3,24.3s28.3,79.4,28.3,79.4l50.8-10.9l19.8,18.7c0,0-39.5,19.6-63.1,30.3&#10;&#9;&#9;s-83.9-55.6-83.9-55.6L180.7,194z" style="fill: rgb(213, 0, 249);"/>
	<path class="st1_report-analysis-8" d="M214.2,331.9c-0.1,0-0.3,0-0.4-0.1c-0.4-0.3-40.7-26-54.9-93.1c-0.1-0.4,0.2-0.7,0.5-0.8&#10;&#9;&#9;c0.4-0.1,0.7,0.2,0.8,0.5l0,0c7.4,34.7,21.7,58,32.5,71.3c11.7,14.5,21.7,20.8,21.8,20.9c0.3,0.2,0.4,0.6,0.3,0.9c0,0,0,0,0,0.1&#10;&#9;&#9;C214.7,331.8,214.5,331.9,214.2,331.9z"/>
	<path class="st1_report-analysis-8" d="M188.4,144.6c-4.4,0-8-3.6-8-8s3.6-8,8-8s8,3.6,8,8S192.8,144.6,188.4,144.6z M188.4,130c-3.6,0-6.6,3-6.6,6.6&#10;&#9;&#9;s3,6.6,6.6,6.6c3.6,0,6.6-3,6.6-6.6C195,133,192.1,130,188.4,130L188.4,130L188.4,130z"/>
	<path class="st2_report-analysis-8" d="M184.9,142.3c0,0,8.5,14,6.5,16.8s-8.1,0.6-8.1,0.6"/>
	<path class="st1_report-analysis-8" d="M187.8,161.1c-1.6,0-3.2-0.3-4.7-0.8c-0.4-0.1-0.5-0.6-0.4-0.9c0.1-0.3,0.5-0.5,0.8-0.4&#10;&#9;&#9;c1.6,0.5,5.9,1.5,7.3-0.4c1.2-1.6-3.1-10.3-6.5-16c-0.2-0.3-0.1-0.8,0.2-1c0,0,0,0,0,0c0.3-0.2,0.8-0.1,1,0.2c0,0,0,0,0,0&#10;&#9;&#9;c1.4,2.4,8.6,14.5,6.5,17.5C191,160.6,189.4,161.3,187.8,161.1z"/>
	<path class="st2_report-analysis-8" d="M183.7,124.2c5.6,4.9,3.5,14.7,3.2,21.2c-0.4,9.1-1,18.1-1.9,27.1c-0.5,5.7-15.4,5.3-18,3.5l3.1,14.3&#10;&#9;&#9;l-32.5-4.8l2-18.7c0,0-2.1-26,4.2-37.5s18.6-10.4,18.6-10.4S178.2,119.4,183.7,124.2z"/>
	<path class="st1_report-analysis-8" d="M170.2,191h-0.1l-32.5-4.8c-0.4-0.1-0.6-0.4-0.6-0.8l2-18.7c-0.1-0.9-2-26.3,4.3-37.8&#10;&#9;&#9;c6.4-11.8,19.2-10.8,19.3-10.8c0.6,0,16,0.6,21.6,5.5c4.9,4.3,4.2,12,3.7,18.3c-0.1,1.2-0.2,2.4-0.2,3.5c-0.4,9-1.1,18.1-1.9,27.2&#10;&#9;&#9;c-0.1,1.1-0.8,2.7-3.3,3.9c-4,1.8-11.1,1.7-14.4,0.7l2.9,13c0.1,0.2,0,0.5-0.2,0.6C170.6,190.9,170.4,191,170.2,191z M138.5,185&#10;&#9;&#9;l30.8,4.5l-2.9-13.4c-0.1-0.3,0.1-0.6,0.3-0.7c0.2-0.2,0.6-0.2,0.8,0c1.7,1.2,10.1,1.8,14.4-0.2c1.5-0.7,2.4-1.6,2.4-2.7&#10;&#9;&#9;c0.8-9,1.5-18.1,1.9-27.1c0.1-1.1,0.1-2.3,0.3-3.5c0.5-5.9,1.1-13.2-3.2-17.1l0,0c-5.2-4.6-20.6-5.1-20.7-5.1s-12-0.9-18,10.1&#10;&#9;&#9;c-6.1,11.2-4.1,36.9-4.1,37.2L138.5,185z"/>
	<path class="st2_report-analysis-8" d="M131.3,190l3-9.9l39.9,3.9l2.3,9.1C176.5,193.1,155.7,202.9,131.3,190z"/>
	<path class="st1_report-analysis-8" d="M157.5,197.3c-9.2,0-18.3-2.3-26.5-6.7c-0.3-0.2-0.4-0.5-0.3-0.8l3.1-9.9c0.1-0.3,0.4-0.5,0.7-0.5l39.9,3.9&#10;&#9;&#9;c0.3,0,0.5,0.2,0.6,0.5l2.3,9.1c0.1,0.3-0.1,0.7-0.4,0.8C170.7,196.1,164.1,197.4,157.5,197.3z M132.2,189.6&#10;&#9;&#9;c21.4,11.1,40.2,4.4,43.5,3l-2-8l-38.8-3.8L132.2,189.6z"/>
	<path class="st2_report-analysis-8" d="M150.8,169.2c0,15.4,15.5,46.5,2.2,58.7c-12.5,11.5-33.8,14.5-50.1,12.8c-23.6-2.6-35.9-18.9-26.2-41.8&#10;&#9;&#9;c4.7-11.2,13-20.4,20-30.4c6.1-8.8,11.2-18.2,15.3-28.1c3.4-8.4,6-18.2,10.7-26C133,97,151.1,90.2,170.3,95.8&#10;&#9;&#9;c8.2,2.4,24,12.3,20.1,23c-1,2.6-4.1,6.6-6.7,5.4c-0.7,5.1-4,7.5-8,10.8s-8.6,5.6-12.9,8.4c-3,1.8-5.7,4.2-7.8,7&#10;&#9;&#9;c-2.5,3.7-3.4,8.3-3.9,12.8C150.9,165.2,150.8,167.2,150.8,169.2z"/>
	<path class="st1_report-analysis-8" d="M111.7,241.8c-2.9,0-5.8-0.1-8.8-0.5c-12.5-1.4-22-6.6-26.8-14.7c-4.5-7.7-4.6-17.4,0-28.1&#10;&#9;&#9;c3.5-8.2,8.9-15.5,14.2-22.5c2-2.6,4-5.3,5.9-8c6.1-8.8,11.2-18.1,15.2-28c1.1-2.8,2.2-5.6,3.2-8.7c2.1-6,4.3-12.2,7.5-17.4&#10;&#9;&#9;c10.3-17.4,28.9-24.6,48.4-18.9c6,1.8,16.1,7.5,19.8,14.8c1.5,2.8,1.8,6.1,0.8,9.1c-0.8,2.1-2.7,4.8-4.9,5.8&#10;&#9;&#9;c-0.6,0.3-1.3,0.4-1.9,0.3c-0.9,4.6-4,7.1-7.6,10l-0.5,0.4c-2.7,2.1-5.6,4-8.5,5.7c-1.4,0.9-2.9,1.8-4.4,2.7&#10;&#9;&#9;c-2.9,1.8-5.5,4.1-7.6,6.9c-2.6,3.8-3.4,8.4-3.8,12.5c-0.2,2-0.3,4-0.3,6c0,4.9,1.6,11.6,3.4,18.6c3.7,15,7.9,32.1-1.4,40.6&#10;&#9;&#9;C142.7,238.4,125.7,241.8,111.7,241.8z M157.4,94.6c-14,0-26.5,7.1-34.2,20.1c-3.1,5.2-5.2,11.3-7.3,17.2c-1,2.9-2.1,5.9-3.3,8.7&#10;&#9;&#9;c-4.1,10-9.2,19.4-15.3,28.3c-1.9,2.7-4,5.5-5.9,8.1c-5.2,6.9-10.6,14.1-14,22.2c-4.3,10.3-4.3,19.6,0,26.9&#10;&#9;&#9;c4.5,7.7,13.7,12.7,25.7,14c14.8,1.6,36.7-0.7,49.5-12.6c8.7-8,4.6-24.6,1-39.2c-1.8-7.1-3.4-13.9-3.4-19l0,0c0-2,0.1-4.1,0.3-6.1&#10;&#9;&#9;c0.5-4.2,1.3-9.1,4-13.1c2.2-2.9,4.9-5.4,8-7.2c1.5-1,3-1.9,4.4-2.8c2.9-1.7,5.7-3.6,8.4-5.6l0.5-0.4c3.6-3,6.5-5.3,7.2-9.9&#10;&#9;&#9;c0-0.2,0.2-0.4,0.4-0.5c0.2-0.1,0.4-0.1,0.6,0c0.5,0.2,1.1,0.2,1.6-0.1c1.7-0.8,3.5-3.2,4.2-5c0.9-2.6,0.7-5.6-0.7-8&#10;&#9;&#9;c-3.5-6.9-13.2-12.4-19-14.1C166,95.2,161.7,94.6,157.4,94.6z"/>
	<path class="st2_report-analysis-8" d="M185.1,165.8c0,0-7.2,4.1-10.6-3.4"/>
	<path class="st1_report-analysis-8" d="M180.7,167.6c-0.8,0-1.5-0.1-2.3-0.3c-2.1-0.8-3.9-2.4-4.7-4.5c-0.2-0.3,0-0.8,0.3-0.9c0,0,0,0,0,0&#10;&#9;&#9;c0.4-0.2,0.8,0,0.9,0.3c0.7,1.7,2.1,3.1,3.8,3.8c2.8,0.9,5.8-0.7,5.8-0.7c0.3-0.2,0.8-0.1,1,0.2c0.2,0.3,0.1,0.8-0.2,1&#10;&#9;&#9;c0,0-0.1,0-0.1,0C183.9,167.1,182.4,167.5,180.7,167.6z"/>
	<path class="st1_report-analysis-8" d="M147.6,147.1c-0.1,0-0.1,0-0.2,0c-0.4-0.1-0.6-0.5-0.5-0.9c1.3-4.5,2.2-4.5,2.5-4.6c0.7-0.1,30.5-3.7,46.2-5.7&#10;&#9;&#9;c0.4,0,0.7,0.2,0.8,0.6s-0.2,0.7-0.6,0.8l0,0c-1.8,0.2-43.3,5.4-46.1,5.7c-0.6,1.1-1.1,2.3-1.4,3.6&#10;&#9;&#9;C148.1,146.9,147.9,147.1,147.6,147.1z M149.6,143L149.6,143z"/>
	<path class="st2_report-analysis-8" d="M167.3,147.4c0.1-2.3-1.1-4.4-2.3-6.3c-0.8-1.6-1.9-3-3.1-4.2c-1.3-1.3-3-1.9-4.8-1.7&#10;&#9;&#9;c-1.5,0.3-2.9,1.3-3.7,2.7c-0.8,1.4-1.2,2.9-1.3,4.4c-0.6,6.9,2.6,13.6,8.3,17.6l-0.5-0.6"/>
	<path class="st1_report-analysis-8" d="M160.4,160.6c-0.1,0-0.3,0-0.4-0.1c-5.9-4.1-9.2-11.1-8.6-18.2c0.1-1.7,0.6-3.3,1.4-4.8c0.9-1.6,2.4-2.7,4.1-3&#10;&#9;&#9;c2-0.2,4,0.4,5.4,1.9c1.3,1.3,2.4,2.8,3.3,4.4c1.1,1.8,2.5,4.1,2.4,6.7c0,0.4-0.3,0.7-0.7,0.7c0,0,0,0-0.1,0&#10;&#9;&#9;c-0.4,0-0.7-0.3-0.7-0.7c0,0,0,0,0,0c0-2.1-1.2-4.2-2.2-5.9c-0.8-1.5-1.8-2.9-3-4.1c-1.1-1.1-2.7-1.7-4.2-1.5&#10;&#9;&#9;c-1.3,0.3-2.5,1.1-3.2,2.3c-0.7,1.3-1.1,2.7-1.2,4.2c-0.5,6.3,2.1,12.4,7.1,16.3c0.2,0,0.5,0.1,0.6,0.2l0.5,0.6&#10;&#9;&#9;c0.2,0.3,0.2,0.7,0,0.9C160.8,160.5,160.6,160.6,160.4,160.6z"/>
	
		<ellipse transform="matrix(0.9999 -1.570732e-02 1.570732e-02 0.9999 -2.1003 2.8834)" class="st1_report-analysis-8" cx="182.5" cy="135.1" rx="1.3" ry="3.2"/>
</g>
<g id="data_report-analysis-8">
	<polygon class="st2_report-analysis-8" points="291.3,163.4 272.6,163.4 273.8,144.7 292.5,144.7 &#9;"/>
	<path class="st0_report-analysis-8" d="M291.3,164.1h-18.7c-0.2,0-0.4-0.1-0.5-0.2c-0.1-0.1-0.2-0.3-0.2-0.5l1.2-18.7c0-0.4,0.3-0.7,0.7-0.7h18.7&#10;&#9;&#9;c0.2,0,0.4,0.1,0.5,0.2c0.1,0.1,0.2,0.3,0.2,0.5l-1.2,18.7C292,163.9,291.7,164.1,291.3,164.1z M273.3,162.7h17.3l1.1-17.3h-17.3&#10;&#9;&#9;L273.3,162.7z"/>
	<polygon class="st2_report-analysis-8" points="321.9,163.4 303.2,163.4 305.5,128.8 324.2,128.8 &#9;"/>
	<path class="st0_report-analysis-8" d="M321.9,164.1h-18.7c-0.2,0-0.4-0.1-0.5-0.2c-0.1-0.1-0.2-0.3-0.2-0.5l2.3-34.7c0-0.4,0.3-0.7,0.7-0.7h18.7&#10;&#9;&#9;c0.2,0,0.4,0.1,0.5,0.2c0.1,0.1,0.2,0.3,0.2,0.5l-2.3,34.7C322.6,163.9,322.3,164.1,321.9,164.1z M303.9,162.7h17.3l2.2-33.3h-17.3&#10;&#9;&#9;L303.9,162.7z"/>
	<polygon class="st3_report-analysis-8 targetColor" points="352.5,163.4 333.8,163.4 337,115.1 355.7,115.1 &#9;" style="fill: rgb(213, 0, 249);"/>
	<path class="st0_report-analysis-8" d="M392.6,130.9h-25.5c-1.2,0-2.1-0.9-2.1-2.1c0-1.2,0.9-2.1,2.1-2.1h25.5c1.2,0,2.1,0.9,2.1,2.1&#10;&#9;&#9;C394.7,129.9,393.8,130.9,392.6,130.9C392.6,130.9,392.6,130.9,392.6,130.9z"/>
	<path class="st0_report-analysis-8" d="M391.9,141.3h-25.5c-1.2,0-2.1-0.9-2.1-2.1c0-1.2,0.9-2.1,2.1-2.1h25.5c1.2,0,2.1,0.9,2.1,2.1&#10;&#9;&#9;C394,140.4,393.1,141.3,391.9,141.3C391.9,141.3,391.9,141.3,391.9,141.3z"/>
	<path class="st0_report-analysis-8" d="M384.7,151.8h-18.9c-1.2,0-2.1-0.9-2.1-2.1c0-1.2,0.9-2.1,2.1-2.1h18.9c1.2,0,2.1,0.9,2.1,2.1&#10;&#9;&#9;C386.8,150.9,385.9,151.8,384.7,151.8C384.7,151.8,384.7,151.8,384.7,151.8z"/>
	<path class="st0_report-analysis-8" d="M286.5,189.6h-15.6c-0.2,0-0.4-0.1-0.5-0.2c-0.1-0.1-0.2-0.3-0.2-0.5l0.8-12.4c0-0.4,0.3-0.7,0.7-0.7h15.6&#10;&#9;&#9;c0.2,0,0.4,0.1,0.5,0.2c0.1,0.1,0.2,0.3,0.2,0.5l-0.8,12.4C287.2,189.3,286.9,189.6,286.5,189.6z M271.6,188.2h14.2l0.7-11h-14.2&#10;&#9;&#9;L271.6,188.2z"/>
	<path class="st0_report-analysis-8" d="M351.5,180.6h-49.3c-1.2,0-2.1-0.9-2.1-2.1c0-1.2,0.9-2.1,2.1-2.1h49.3c1.2,0,2.1,0.9,2.1,2.1&#10;&#9;&#9;C353.6,179.6,352.7,180.6,351.5,180.6C351.5,180.6,351.5,180.6,351.5,180.6z"/>
	<path class="st0_report-analysis-8" d="M340.7,187.6h-39c-1.2,0-2.1-0.9-2.1-2.1c0-1.2,0.9-2.1,2.1-2.1c0,0,0,0,0,0h39c1.2,0,2.1,0.9,2.1,2.1&#10;&#9;&#9;C342.8,186.7,341.9,187.6,340.7,187.6C340.7,187.6,340.7,187.6,340.7,187.6z"/>
	<path class="st3_report-analysis-8 targetColor" d="M277.5,186.9c-0.2,0-0.3,0-0.5-0.1c-0.6-0.2-1.2-0.6-1.4-1.2l-1.3-2.9c-0.5-1-0.1-2.3,0.9-2.8&#10;&#9;&#9;c1-0.5,2.3-0.1,2.8,0.9c0,0.1,0.1,0.1,0.1,0.2l0.2,0.4l3.2-2.6c0.9-0.7,2.2-0.6,3,0.3c0.7,0.9,0.6,2.2-0.3,3l-5.3,4.3&#10;&#9;&#9;C278.4,186.7,278,186.9,277.5,186.9z" style="fill: rgb(213, 0, 249);"/>
	<path class="st0_report-analysis-8" d="M285.1,211.2h-15.6c-0.2,0-0.4-0.1-0.5-0.2c-0.1-0.1-0.2-0.3-0.2-0.5l0.8-12.4c0-0.4,0.3-0.6,0.7-0.6h15.6&#10;&#9;&#9;c0.2,0,0.4,0.1,0.5,0.2c0.1,0.1,0.2,0.3,0.2,0.5l-0.8,12.4C285.8,210.9,285.5,211.2,285.1,211.2z M270.2,209.8h14.2l0.7-11h-14.2&#10;&#9;&#9;L270.2,209.8z"/>
	<path class="st0_report-analysis-8" d="M350.1,202.2h-49.4c-1.2,0-2.1-0.9-2.1-2.1c0-1.2,0.9-2.1,2.1-2.1h49.4c1.2,0,2.1,0.9,2.1,2.1&#10;&#9;&#9;C352.2,201.3,351.3,202.2,350.1,202.2z"/>
	<path class="st0_report-analysis-8" d="M339.3,209.3h-39c-1.2,0-2.1-0.9-2.1-2.1c0-1.2,0.9-2.1,2.1-2.1h39c1.2,0,2.1,0.9,2.1,2.1&#10;&#9;&#9;C341.4,208.3,340.4,209.3,339.3,209.3C339.3,209.3,339.3,209.3,339.3,209.3z"/>
	<path class="st3_report-analysis-8 targetColor" d="M276.1,208.5c-0.2,0-0.3,0-0.5-0.1c-0.6-0.2-1.2-0.6-1.4-1.2l-1.3-2.9c-0.5-1.1,0-2.3,1-2.8&#10;&#9;&#9;c1.1-0.5,2.3,0,2.8,1.1l0,0l0.2,0.4l3.2-2.6c0.9-0.7,2.2-0.6,3,0.3c0.7,0.9,0.6,2.2-0.3,3c0,0,0,0,0,0l-5.3,4.3&#10;&#9;&#9;C277,208.3,276.6,208.5,276.1,208.5z" style="fill: rgb(213, 0, 249);"/>
	<path class="st0_report-analysis-8" d="M370,191.2h-9.3c-0.4,0-0.7-0.3-0.7-0.7c0,0,0,0,0-0.1c0.6-4.9,2.8-9.5,6.3-13.1c0.7-0.7,1.4-1.4,2.2-2&#10;&#9;&#9;c3.8-3.2,8.5-5.1,13.4-5.4c0.2,0,0.4,0.1,0.5,0.2c0.1,0.1,0.2,0.3,0.2,0.6L382,180c0,0.3-0.3,0.6-0.6,0.6c-2.2,0.3-4.2,1.1-5.9,2.4&#10;&#9;&#9;c-0.7,0.5-1.4,1.2-2,1.9c-1.4,1.6-2.4,3.6-2.8,5.8C370.6,191,370.3,191.2,370,191.2z M361.5,189.8h7.9c0.5-2.2,1.5-4.2,3-5.9&#10;&#9;&#9;c0.7-0.8,1.4-1.5,2.2-2.1c1.8-1.3,3.8-2.2,6-2.6l0.5-7.9c-4.4,0.4-8.5,2.2-11.8,5l0,0c-0.7,0.6-1.4,1.2-2,1.9&#10;&#9;&#9;C364.3,181.5,362.2,185.5,361.5,189.8L361.5,189.8z M368.9,175.9L368.9,175.9z"/>
	<path class="st0_report-analysis-8" d="M380.5,214c-0.5,0-1,0-1.4,0c-4.8-0.3-9.3-2.2-12.8-5.4c-0.7-0.6-1.3-1.3-1.9-2c-3-3.7-4.6-8.3-4.6-13.1&#10;&#9;&#9;c0-0.4,0.3-0.7,0.7-0.7l0,0h9.3c0.4,0,0.7,0.3,0.7,0.7c0.1,2.1,0.8,4,2,5.7c1.7,2.4,4.4,3.9,7.3,4.2c0.9,0.1,1.7,0.1,2.6,0&#10;&#9;&#9;c2.2-0.3,4.2-1.1,5.9-2.4c2.5-1.9,4.2-4.6,4.8-7.6c0.1-0.4,0.1-0.9,0.2-1.3c0-0.4,0-0.9,0-1.3c-0.1-2.1-0.8-4-2-5.7&#10;&#9;&#9;c-0.2-0.3-0.2-0.7,0.1-0.9l7-6.6c0.1-0.1,0.3-0.2,0.5-0.2c0.2,0,0.4,0.1,0.5,0.2c3,3.7,4.6,8.3,4.6,13c0,0.5,0,1,0,1.4&#10;&#9;&#9;s-0.1,1-0.1,1.4c-0.6,4.9-2.8,9.5-6.3,13.1c-0.7,0.7-1.4,1.4-2.2,2c-3.8,3.2-8.5,5.1-13.4,5.4C381.4,214,381,214,380.5,214z&#10;&#9;&#9; M361.2,194c0.1,4.2,1.6,8.3,4.3,11.5c0.5,0.7,1.1,1.3,1.8,1.9c3.3,3,7.5,4.8,11.9,5.1c0.9,0.1,1.8,0.1,2.7,0&#10;&#9;&#9;c4.6-0.3,9.1-2.1,12.6-5.1c0.7-0.6,1.4-1.2,2-1.9c3.2-3.4,5.3-7.7,5.9-12.3c0.1-0.4,0.1-0.9,0.1-1.3s0-0.9,0-1.3l0,0&#10;&#9;&#9;c0-4.2-1.3-8.3-3.8-11.6l-6,5.6c1.2,1.8,1.8,3.9,1.9,6c0,1,0,2-0.2,2.9c-0.4,2.4-1.5,4.6-3.1,6.4c-0.7,0.8-1.4,1.5-2.2,2.1&#10;&#9;&#9;c-1.9,1.5-4.2,2.4-6.6,2.7c-1,0.1-2,0.1-2.9,0c-2.3-0.3-4.5-1.2-6.3-2.7c-2.4-2-3.9-4.8-4.2-7.9L361.2,194z"/>
	<path class="st3_report-analysis-8 targetColor" d="M397,175.9c-3.4-3.1-7.7-5-12.3-5.3l-0.6,9.3c2.2,0.2,4.2,1.1,5.9,2.5L397,175.9z" style="fill: rgb(213, 0, 249);"/>
</g>
<g id="Chair_report-analysis-8">
	<path class="st1_report-analysis-8" d="M188.6,369.2c-22.6-6.2-31.4-24.1-33.4-46c-1.8-19.2,3.2-48.4-10.9-63.9c-10.8-11.7-32.8-14.4-47.8-13.9&#10;&#9;&#9;c-24.7,0.8-34.6,21.5-37,43.5c-2.2,22-1.9,44.2,1,66.2c1.7,13.7,2.1,43.9,20.4,46.7c41.1,6.4,94.3,4.2,135.7,3.1&#10;&#9;&#9;c5.3-0.1,10.9-0.3,15.4-3c3.5-2.1,5.4-5.3,3.7-9.2c-1.1-2.2-2.7-4.1-4.7-5.6c-10.5-8.8-24-12.9-37.1-16.5L188.6,369.2z"/>
	<path class="st1_report-analysis-8" d="M153.4,406.8c-25.1,0-50.7-1-72.6-4.4c-16.5-2.6-18.8-26-20.3-41.5c-0.2-2.2-0.4-4.1-0.6-5.9&#10;&#9;&#9;c-2.9-22-3.2-44.3-1-66.4c1.7-16.1,8.9-43.1,37.6-44.1c31.8-1.1,45,10.6,48.3,14.2c10.6,11.6,10.6,30.7,10.6,47.5&#10;&#9;&#9;c0,6,0,11.7,0.5,16.7c2.4,25.1,13.1,40,32.9,45.4l0,0l3.3,0.9l2,0.5c13.7,3.7,26.9,7.8,37.4,16.6c2,1.6,3.7,3.6,4.9,5.9&#10;&#9;&#9;c1.7,3.9,0.3,7.6-4,10.1c-4.8,2.8-10.9,3-15.8,3.1l-12.9,0.3C188.1,406.4,170.9,406.8,153.4,406.8z M100,246c-1.2,0-2.3,0-3.4,0.1&#10;&#9;&#9;c-27.7,0.9-34.6,27.3-36.3,42.9c-2.2,22-1.9,44.1,1,66c0.2,1.7,0.4,3.7,0.6,5.9c1.5,15.1,3.7,37.8,19.1,40.2&#10;&#9;&#9;c36.9,5.8,84.5,4.5,122.7,3.5l12.9-0.3c5-0.1,10.6-0.2,15.1-2.9c2.1-1.2,5.3-3.9,3.4-8.3c-1.1-2.1-2.6-3.9-4.5-5.3&#10;&#9;&#9;c-10.2-8.7-23.3-12.7-36.8-16.4l-2-0.5c-1.1-0.3-2.2-0.6-3.3-0.9l0,0c-20.4-5.6-31.5-20.9-33.9-46.6c-0.5-5.1-0.5-10.8-0.5-16.9&#10;&#9;&#9;c0-16.6,0-35.4-10.2-46.6C134.4,249.6,115.7,246,100,246z"/>
	<path class="st2_report-analysis-8" d="M137.9,310.4c-0.4,0-0.7-0.3-0.7-0.7l0,0c0-0.3-0.1-26-5.6-39.6c-5.4-13.3-27.1-16.2-27.3-16.2&#10;&#9;&#9;c-0.4,0-0.7-0.4-0.6-0.8c0-0.4,0.4-0.7,0.8-0.6c0.9,0.1,22.7,3,28.4,17.1c5.6,13.8,5.7,39,5.7,40.1&#10;&#9;&#9;C138.6,310.1,138.2,310.4,137.9,310.4C137.9,310.4,137.9,310.4,137.9,310.4z"/>
</g>
</svg>